<svg xmlns="http://www.w3.org/2000/svg" width="18.599" height="18.598" viewBox="0 0 18.599 18.598">
  <path id="Icon_ionic-md-call" data-name="Icon ionic-md-call" d="M22.065,17.416a12.127,12.127,0,0,1-3.668-.568.966.966,0,0,0-1.033.258l-2.273,2.273a15.538,15.538,0,0,1-6.82-6.82l2.273-2.273A1.077,1.077,0,0,0,10.8,9.253a11.237,11.237,0,0,1-.62-3.72A1.036,1.036,0,0,0,9.15,4.5H5.533A1.036,1.036,0,0,0,4.5,5.533,17.551,17.551,0,0,0,22.065,23.1,1.037,1.037,0,0,0,23.1,22.065V18.449A1.037,1.037,0,0,0,22.065,17.416Z" transform="translate(-4.5 -4.5)" fill="#fff"/>
</svg>
